<?xml version="1.0" encoding="UTF-8" standalone="no"?>
<!-- Created with Inkscape (http://www.inkscape.org/) -->

<svg
   xmlns:dc="http://purl.org/dc/elements/1.1/"
   xmlns:cc="http://creativecommons.org/ns#"
   xmlns:rdf="http://www.w3.org/1999/02/22-rdf-syntax-ns#"
   xmlns:svg="http://www.w3.org/2000/svg"
   xmlns="http://www.w3.org/2000/svg"
   xmlns:sodipodi="http://sodipodi.sourceforge.net/DTD/sodipodi-0.dtd"
   xmlns:inkscape="http://www.inkscape.org/namespaces/inkscape"
   width="300"
   height="220"
   id="svg2"
   version="1.1"
   inkscape:version="0.92.1 r"
   sodipodi:docname="logo.svg">
  <defs
     id="defs4">
    <inkscape:perspective
       sodipodi:type="inkscape:persp3d"
       inkscape:vp_x="0 : 393.112 : 1"
       inkscape:vp_y="0 : 1000 : 0"
       inkscape:vp_z="931.67438 : 393.112 : 1"
       inkscape:persp3d-origin="465.83719 : 262.07467 : 1"
       id="perspective3939" />
    <clipPath
       clipPathUnits="userSpaceOnUse"
       id="clipPath3995">
      <rect
         style="fill:#ffff00;fill-opacity:1;stroke:none"
         id="rect3997"
         width="525"
         height="393"
         x="-104.16935"
         y="63.519455"
         ry="4.0735092" />
    </clipPath>
    <clipPath
       clipPathUnits="userSpaceOnUse"
       id="clipPath4207">
      <rect
         style="fill:#ffff00;fill-opacity:1;stroke:none"
         id="rect4209"
         width="453.96469"
         height="340.74832"
         x="-787.33624"
         y="-35.649395"
         ry="19.3349"
         rx="0" />
    </clipPath>
    <clipPath
       clipPathUnits="userSpaceOnUse"
       id="clipPath3082">
      <rect
         style="fill:#ffff00;stroke:none"
         id="rect3084"
         width="376"
         height="356"
         x="485.34241"
         y="338.93365"
         ry="3.8639612" />
    </clipPath>
    <clipPath
       clipPathUnits="userSpaceOnUse"
       id="clipPath4207-1">
      <rect
         style="fill:#ffff00;fill-opacity:1;stroke:none"
         id="rect4209-7"
         width="453.96469"
         height="340.74832"
         x="-787.33624"
         y="-35.649395"
         ry="19.3349"
         rx="0" />
    </clipPath>
    <clipPath
       clipPathUnits="userSpaceOnUse"
       id="clipPath4207-11">
      <rect
         style="fill:#ffff00;fill-opacity:1;stroke:none"
         id="rect4209-5"
         width="453.96469"
         height="340.74832"
         x="-787.33624"
         y="-35.649395"
         ry="19.3349"
         rx="0" />
    </clipPath>
    <clipPath
       clipPathUnits="userSpaceOnUse"
       id="clipPath4001">
      <rect
         style="opacity:0.3;fill:#000000;fill-opacity:1;stroke:none"
         id="rect4003"
         width="597.2066"
         height="579.82751"
         x="1461.5786"
         y="-169.41072"
         ry="12.064271"
         rx="0" />
    </clipPath>
    <clipPath
       clipPathUnits="userSpaceOnUse"
       id="clipPath4936">
      <rect
         style="opacity:0.3;fill:#000000;fill-opacity:1;stroke:none"
         id="rect4938"
         width="603.28503"
         height="446.68445"
         x="885.67096"
         y="-35.431602"
         ry="0" />
    </clipPath>
    <clipPath
       clipPathUnits="userSpaceOnUse"
       id="clipPath4962">
      <rect
         style="opacity:0.3;fill:#000000;fill-opacity:1;stroke:none"
         id="rect4964"
         width="691.84308"
         height="467.10425"
         x="860.14801"
         y="-56.004883" />
    </clipPath>
    <clipPath
       clipPathUnits="userSpaceOnUse"
       id="clipPath4966">
      <rect
         style="opacity:0.3;fill:#000000;fill-opacity:1;stroke:none"
         id="rect4968"
         width="691.84308"
         height="467.10425"
         x="1483.2374"
         y="-70.004883" />
    </clipPath>
    <clipPath
       clipPathUnits="userSpaceOnUse"
       id="clipPath4996">
      <rect
         style="opacity:0.3;fill:#000000;fill-opacity:1;stroke:none"
         id="rect4998"
         width="639.81207"
         height="571.26074"
         x="1318.6578"
         y="-152.59947" />
    </clipPath>
    <clipPath
       clipPathUnits="userSpaceOnUse"
       id="clipPath5000">
      <rect
         style="opacity:0.3;fill:#000000;fill-opacity:1;stroke:none"
         id="rect5002"
         width="639.81207"
         height="571.26074"
         x="1318.6578"
         y="-152.59947" />
    </clipPath>
    <clipPath
       clipPathUnits="userSpaceOnUse"
       id="clipPath5004">
      <rect
         style="opacity:0.3;fill:#000000;fill-opacity:1;stroke:none"
         id="rect5006"
         width="388.17902"
         height="346.55463"
         x="-738.74548"
         y="-64.066879" />
    </clipPath>
    <clipPath
       clipPathUnits="userSpaceOnUse"
       id="clipPath5012">
      <rect
         style="opacity:0.3;fill:#000000;fill-opacity:1;stroke:none"
         id="rect5014"
         width="639.81207"
         height="571.26074"
         x="1494.9236"
         y="-176.10156" />
    </clipPath>
    <clipPath
       clipPathUnits="userSpaceOnUse"
       id="clipPath3088">
      <rect
         y="-160.90872"
         x="1342.3937"
         height="570.7099"
         width="653.62128"
         id="rect3090"
         style="opacity:0.3;fill:#000000;fill-opacity:1;stroke:none" />
    </clipPath>
    <clipPath
       clipPathUnits="userSpaceOnUse"
       id="clipPath4106">
      <rect
         style="opacity:0.3;fill:#000000;fill-opacity:1;stroke:none"
         id="rect4108"
         width="622.15491"
         height="545.29437"
         x="1326.5328"
         y="-126.63306" />
    </clipPath>
    <clipPath
       clipPathUnits="userSpaceOnUse"
       id="clipPath4110">
      <rect
         style="opacity:0.3;fill:#000000;fill-opacity:1;stroke:none"
         id="rect4112"
         width="622.15491"
         height="545.29437"
         x="1326.5328"
         y="-126.63306" />
    </clipPath>
    <clipPath
       clipPathUnits="userSpaceOnUse"
       id="clipPath4114">
      <rect
         style="opacity:0.3;fill:#000000;fill-opacity:1;stroke:none"
         id="rect4116"
         width="377.46628"
         height="330.80215"
         x="-733.96765"
         y="-48.314392" />
    </clipPath>
    <clipPath
       clipPathUnits="userSpaceOnUse"
       id="clipPath4118">
      <rect
         style="opacity:0.3;fill:#000000;fill-opacity:1;stroke:none"
         id="rect4120"
         width="622.15491"
         height="545.29437"
         x="2173.4714"
         y="-133.90366" />
    </clipPath>
    <clipPath
       clipPathUnits="userSpaceOnUse"
       id="clipPath4118-3">
      <rect
         style="opacity:0.3;fill:#000000;fill-opacity:1;stroke:none"
         id="rect4120-6"
         width="622.15491"
         height="545.29437"
         x="2173.4714"
         y="-133.90366" />
    </clipPath>
    <clipPath
       clipPathUnits="userSpaceOnUse"
       id="clipPath3082-5">
      <rect
         style="fill:#ffff00;stroke:none"
         id="rect3084-3"
         width="376"
         height="356"
         x="485.34241"
         y="338.93365"
         ry="3.8639612" />
    </clipPath>
    <clipPath
       clipPathUnits="userSpaceOnUse"
       id="clipPath4118-3-5">
      <rect
         style="opacity:0.3;fill:#000000;fill-opacity:1;stroke:none"
         id="rect4120-6-6"
         width="622.15491"
         height="545.29437"
         x="2173.4714"
         y="-133.90366" />
    </clipPath>
    <clipPath
       clipPathUnits="userSpaceOnUse"
       id="clipPath4118-2">
      <rect
         style="opacity:0.3;fill:#000000;fill-opacity:1;stroke:none"
         id="rect4120-9"
         width="622.15491"
         height="545.29437"
         x="2173.4714"
         y="-133.90366" />
    </clipPath>
    <clipPath
       clipPathUnits="userSpaceOnUse"
       id="clipPath4114-1">
      <rect
         style="opacity:0.3;fill:#000000;fill-opacity:1;stroke:none"
         id="rect4116-2"
         width="377.46628"
         height="330.80215"
         x="-733.96765"
         y="-48.314392" />
    </clipPath>
    <clipPath
       clipPathUnits="userSpaceOnUse"
       id="clipPath4110-7">
      <rect
         style="opacity:0.3;fill:#000000;fill-opacity:1;stroke:none"
         id="rect4112-0"
         width="622.15491"
         height="545.29437"
         x="1326.5328"
         y="-126.63306" />
    </clipPath>
    <clipPath
       clipPathUnits="userSpaceOnUse"
       id="clipPath4106-9">
      <rect
         style="opacity:0.3;fill:#000000;fill-opacity:1;stroke:none"
         id="rect4108-3"
         width="622.15491"
         height="545.29437"
         x="1326.5328"
         y="-126.63306" />
    </clipPath>
    <clipPath
       clipPathUnits="userSpaceOnUse"
       id="clipPath3082-2">
      <rect
         style="fill:#ffff00;stroke:none"
         id="rect3084-2"
         width="376"
         height="356"
         x="485.34241"
         y="338.93365"
         ry="3.8639612" />
    </clipPath>
    <clipPath
       clipPathUnits="userSpaceOnUse"
       id="clipPath4118-3-8">
      <rect
         style="opacity:0.3;fill:#000000;fill-opacity:1;stroke:none"
         id="rect4120-6-9"
         width="622.15491"
         height="545.29437"
         x="2173.4714"
         y="-133.90366" />
    </clipPath>
    <clipPath
       clipPathUnits="userSpaceOnUse"
       id="clipPath4118-7">
      <rect
         style="opacity:0.3;fill:#000000;fill-opacity:1;stroke:none"
         id="rect4120-3"
         width="622.15491"
         height="545.29437"
         x="2173.4714"
         y="-133.90366" />
    </clipPath>
    <clipPath
       clipPathUnits="userSpaceOnUse"
       id="clipPath4114-6">
      <rect
         style="opacity:0.3;fill:#000000;fill-opacity:1;stroke:none"
         id="rect4116-1"
         width="377.46628"
         height="330.80215"
         x="-733.96765"
         y="-48.314392" />
    </clipPath>
    <clipPath
       clipPathUnits="userSpaceOnUse"
       id="clipPath4110-2">
      <rect
         style="opacity:0.3;fill:#000000;fill-opacity:1;stroke:none"
         id="rect4112-9"
         width="622.15491"
         height="545.29437"
         x="1326.5328"
         y="-126.63306" />
    </clipPath>
    <clipPath
       clipPathUnits="userSpaceOnUse"
       id="clipPath4106-3">
      <rect
         style="opacity:0.3;fill:#000000;fill-opacity:1;stroke:none"
         id="rect4108-1"
         width="622.15491"
         height="545.29437"
         x="1326.5328"
         y="-126.63306" />
    </clipPath>
  </defs>
  <sodipodi:namedview
     id="base"
     pagecolor="#ffffff"
     bordercolor="#666666"
     borderopacity="1.0"
     inkscape:pageopacity="0.0"
     inkscape:pageshadow="2"
     inkscape:zoom="1.3615804"
     inkscape:cx="24.943785"
     inkscape:cy="238.63558"
     inkscape:document-units="px"
     inkscape:current-layer="layer1"
     showgrid="false"
     fit-margin-top="0"
     fit-margin-left="0"
     fit-margin-right="0"
     fit-margin-bottom="0"
     inkscape:window-width="1920"
     inkscape:window-height="1018"
     inkscape:window-x="1920"
     inkscape:window-y="34"
     inkscape:window-maximized="1" />
  <metadata
     id="metadata7">
    <rdf:RDF>
      <cc:Work
         rdf:about="">
        <dc:format>image/svg+xml</dc:format>
        <dc:type
           rdf:resource="http://purl.org/dc/dcmitype/StillImage" />
        <dc:title></dc:title>
      </cc:Work>
    </rdf:RDF>
  </metadata>
  <g
     inkscape:label="Capa 1"
     inkscape:groupmode="layer"
     id="layer1"
     transform="translate(1188.6576,-420.93367)">
    <g
       id="g5482"
       transform="translate(0,-10.999708)">
      <path
         sodipodi:nodetypes="sscscssccssccsccccccccccsccccssccss"
         inkscape:connector-curvature="0"
         id="rect4008-7"
         d="m -1055.5932,455.41119 c -23.7997,0 -43.0957,19.92171 -43.0957,44.49805 0,0.65926 0.023,1.31259 0.051,1.96484 -0.029,0.67475 -0.051,1.35292 -0.051,2.03516 0,3.10793 0.3128,6.14033 0.9004,9.06836 h -39.2207 c -4.6665,0 -8.4238,3.7573 -8.4238,8.42383 v 34.69531 0.24609 30.03907 c 0,4.66652 3.7573,8.42187 8.4238,8.42187 h 60.1524 v 31.875 h -24.5371 c -1.0023,0 -1.8089,0.79648 -1.8321,1.79297 v 0 0.043 0.31445 3.62696 h 75.1465 v -3.62696 -0.31445 -0.043 0 c -0.023,-0.99649 -0.8298,-1.79297 -1.832,-1.79297 h -22.3926 v -31.875 h 22.8808 32.293 5.28323 c 4.6665,0 8.4238,-3.75535 8.4238,-8.42187 v -5.97266 l -29.85933,-88.99219 c -3.8384,-20.51494 -21.315,-36.00586 -42.3028,-36.00586 z"
         style="opacity:0.3;fill:#000000;fill-opacity:1;stroke:none;stroke-width:0.30530447" />
      <g
         id="g4660">
        <g
           id="g4243"
           transform="matrix(0.30530447,0,0,0.30530447,-816.94674,462.59154)">
          <rect
             style="fill:#000000;fill-opacity:1;stroke:none"
             id="rect4008"
             width="80.397614"
             height="144.46759"
             x="-853.30359"
             y="395.02185" />
          <circle
             r="15.714286"
             cy="503.79074"
             cx="-1311.4286"
             style="fill:#ffffff;fill-opacity:1;stroke:none"
             id="path4010"
             transform="matrix(1.5099644,0,0,1.5099644,1167.3891,-323.57468)" />
          <rect
             style="fill:#000000;fill-opacity:1;stroke:none"
             id="rect4012"
             width="252.68866"
             height="13.056025"
             x="-939.68506"
             y="530.90375"
             ry="6.0126433" />
          <rect
             ry="0"
             y="536.77277"
             x="-939.68506"
             height="13.056025"
             width="252.68866"
             id="rect4014"
             style="fill:#000000;fill-opacity:1;stroke:none" />
          <rect
             ry="27.589937"
             y="151.93349"
             x="-1077.9149"
             height="268.01654"
             width="530.62054"
             id="rect4016"
             style="fill:#ffffff;fill-opacity:1;stroke:#000000;stroke-width:18.20851517;stroke-miterlimit:4;stroke-dasharray:none;stroke-opacity:1" />
          <path
             style="fill:none;stroke:#000000;stroke-width:7.85832167;stroke-linecap:butt;stroke-linejoin:miter;stroke-miterlimit:4;stroke-dasharray:none;stroke-opacity:1"
             d="m 428.57782,522.55992 h 112.58586 l 21.8744,-100.5768 21.93348,100.84889 19.89741,91.48675 26.91281,-123.74328 10.46152,48.10053 23.8844,-109.8195 32.3062,148.5407 13.2823,-61.07193 h 107.1594"
             id="path4018"
             inkscape:connector-curvature="0"
             clip-path="url(#clipPath3082)"
             transform="matrix(1.0264278,0,0,1.0264278,-1568.4889,-242.39782)" />
        </g>
        <path
           transform="matrix(0.30530447,0,0,0.30530447,-1771.978,466.59154)"
           style="opacity:0.3;fill:#001b2d;fill-opacity:1;stroke:none"
           d="m 2344.4736,-36.62224 c -77.954,0 -141.1563,65.25219 -141.1563,145.75 0,41.55535 16.8566,79.0425 43.875,105.59375 l 116.9376,122.78125 116.625,122.46875 v 4.8125 l 2.2812,-2.40625 2.3125,2.40625 v -4.8125 l 116.625,-122.46875 116.5625,-122.4375 c 27.2316,-26.57163 44.2188,-64.19542 44.2188,-105.9375 0,-80.49781 -63.1711,-145.75 -141.125,-145.75 -68.7447,0 -126.0226,50.74086 -138.5938,117.9375 -12.5724,-67.19504 -69.8189,-117.9375 -138.5625,-117.9375 z"
           id="path4024-7"
           inkscape:connector-curvature="0"
           clip-path="url(#clipPath4118-3)" />
        <g
           id="g4251"
           transform="matrix(0.30530447,0,0,0.30530447,-816.94674,462.59154)">
          <path
             transform="translate(-3128.1275)"
             style="fill:#1f81bf;fill-opacity:1;stroke:none"
             d="m 2344.4736,-36.62224 c -77.954,0 -141.1563,65.25219 -141.1563,145.75 0,41.55535 16.8566,79.0425 43.875,105.59375 l 116.9376,122.78125 116.625,122.46875 v 4.8125 l 2.2812,-2.40625 2.3125,2.40625 v -4.8125 l 116.625,-122.46875 116.5625,-122.4375 c 27.2316,-26.57163 44.2188,-64.19542 44.2188,-105.9375 0,-80.49781 -63.1711,-145.75 -141.125,-145.75 -68.7447,0 -126.0226,50.74086 -138.5938,117.9375 -12.5724,-67.19504 -69.8189,-117.9375 -138.5625,-117.9375 z"
             id="path4024"
             inkscape:connector-curvature="0"
             clip-path="url(#clipPath4118)" />
          <g
             transform="matrix(1.6482397,0,0,1.6484003,255.83323,-54.262199)"
             id="g4026"
             clip-path="url(#clipPath4114)">
            <rect
               style="fill:#ffffff;fill-opacity:1;stroke:none"
               id="rect4028"
               width="100.58121"
               height="30.386772"
               x="44.155785"
               y="444.03079"
               transform="rotate(90)"
               ry="6.5518346" />
            <rect
               ry="6.5518346"
               transform="scale(-1)"
               y="-109.63973"
               x="408.93353"
               height="30.386772"
               width="100.58121"
               id="rect4030"
               style="fill:#ffffff;fill-opacity:1;stroke:none" />
          </g>
          <path
             inkscape:connector-curvature="0"
             style="opacity:0.3;fill:#000000;fill-opacity:1;stroke:none"
             d="m 1802.9161,31.0546 c 0.9598,1.61378 1.5,3.50576 1.5,5.53125 v 47.0625 h 47.0625 c 2.136,0 4.1116,0.62375 5.7813,1.6875 z m 57.6562,57.59375 c 1.0627,1.67677 1.6876,3.67215 1.6876,5.8125 v 28.46875 c 0,5.98323 -4.7981,10.8125 -10.7813,10.8125 h -47.0625 v 47.0625 c 0,5.98264 -4.7987,10.78125 -10.7812,10.78125 h -28.5 c -5.9829,0 -10.8126,-4.79861 -10.8126,-10.78125 v -47.0625 h -47.0312 c -2.6017,0 -4.9805,-0.91347 -6.8438,-2.4375 l -0.4374,0.46875 132.1874,131.96875 39.4063,-41.40625 c 21.604,-21.08037 36.7521,-49.12586 42.0937,-80.65625 z"
             id="path4032"
             clip-path="url(#clipPath4110)"
             transform="translate(-2280.4543,-7.2705916)" />
          <path
             inkscape:connector-curvature="0"
             style="opacity:0.3;fill:#000000;fill-opacity:1;stroke:none"
             d="m 1696.4786,118.9296 v 4 c 0,5.98323 4.8293,10.8125 10.8125,10.8125 h 47.0312 v -4 h -47.0312 c -5.9832,0 -10.8125,-4.82927 -10.8125,-10.8125 z m 165.7813,0 c 0,5.98323 -4.7981,10.8125 -10.7813,10.8125 h -47.0625 v 4 h 47.0625 c 5.9832,0 10.7813,-4.82927 10.7813,-10.8125 z m -107.9376,57.875 v 4 c 0,5.98264 4.8298,10.78125 10.8126,10.78125 h 28.5 c 5.9825,0 10.7812,-4.79861 10.7812,-10.78125 v -4 c 0,5.98264 -4.7987,10.78125 -10.7812,10.78125 h -28.5 c -5.9828,0 -10.8126,-4.79861 -10.8126,-10.78125 z"
             id="path4034"
             clip-path="url(#clipPath4106)"
             transform="translate(-2280.4543,-7.2705916)" />
        </g>
      </g>
    </g>
  </g>
</svg>
