<?xml version="1.0" encoding="UTF-8" standalone="no"?>
<!-- Generator: Adobe Illustrator 19.1.0, SVG Export Plug-In . SVG Version: 6.00 Build 0)  -->

<svg
   xmlns:dc="http://purl.org/dc/elements/1.1/"
   xmlns:cc="http://creativecommons.org/ns#"
   xmlns:rdf="http://www.w3.org/1999/02/22-rdf-syntax-ns#"
   xmlns:svg="http://www.w3.org/2000/svg"
   xmlns="http://www.w3.org/2000/svg"
   xmlns:sodipodi="http://sodipodi.sourceforge.net/DTD/sodipodi-0.dtd"
   xmlns:inkscape="http://www.inkscape.org/namespaces/inkscape"
   version="1.1"
   id="Capa_1"
   x="0px"
   y="0px"
   viewBox="0 0 20 20"
   xml:space="preserve"
   sodipodi:docname="search.svg"
   width="20"
   height="20"
   inkscape:version="0.92.1 r"><metadata
     id="metadata41"><rdf:RDF><cc:Work
         rdf:about=""><dc:format>image/svg+xml</dc:format><dc:type
           rdf:resource="http://purl.org/dc/dcmitype/StillImage" /><dc:title></dc:title></cc:Work></rdf:RDF></metadata><defs
     id="defs39" /><sodipodi:namedview
     pagecolor="#282831"
     bordercolor="#666666"
     borderopacity="1"
     objecttolerance="10"
     gridtolerance="10"
     guidetolerance="10"
     inkscape:pageopacity="0"
     inkscape:pageshadow="2"
     inkscape:window-width="1920"
     inkscape:window-height="1018"
     id="namedview37"
     showgrid="false"
     inkscape:zoom="41"
     inkscape:cx="5.8951736"
     inkscape:cy="13.751867"
     inkscape:window-x="1920"
     inkscape:window-y="34"
     inkscape:window-maximized="1"
     inkscape:current-layer="g4" /><g
     id="g4"
     transform="translate(0,-431)"><path
       d="m 18.891884,449.12516 -4.398647,-4.39762 c 1.179929,-1.35621 1.894306,-3.12568 1.894306,-5.05966 0,-4.25717 -3.463533,-7.71589 -7.7176984,-7.71589 -4.2581802,0 -7.71770079,3.46273 -7.71770079,7.71589 0,4.25315 3.46353399,7.71588 7.71770079,7.71588 1.9344414,0 3.7043354,-0.71422 5.0608534,-1.89387 l 4.398646,4.39762 c 0.10435,0.10433 0.244816,0.1605 0.38127,0.1605 0.136456,0 0.276924,-0.0522 0.38127,-0.1605 0.208695,-0.20864 0.208695,-0.55371 0,-0.76235 z M 2.0317389,439.66788 c 0,-3.65934 2.9779169,-6.63255 6.6340922,-6.63255 3.6601879,0 6.6340919,2.97723 6.6340919,6.63255 0,3.65533 -2.973904,6.63655 -6.6340919,6.63655 -3.6561753,0 -6.6340922,-2.97723 -6.6340922,-6.63655 z"
       id="path2"
       style="fill:#ffffff;stroke:#fdfdfd;stroke-width:1.904;stroke-miterlimit:4;stroke-dasharray:none;stroke-opacity:1;stroke-linecap:round"
       inkscape:connector-curvature="0" /></g><g
     id="g6"
     transform="translate(0,-431)" /><g
     id="g8"
     transform="translate(0,-431)" /><g
     id="g10"
     transform="translate(0,-431)" /><g
     id="g12"
     transform="translate(0,-431)" /><g
     id="g14"
     transform="translate(0,-431)" /><g
     id="g16"
     transform="translate(0,-431)" /><g
     id="g18"
     transform="translate(0,-431)" /><g
     id="g20"
     transform="translate(0,-431)" /><g
     id="g22"
     transform="translate(0,-431)" /><g
     id="g24"
     transform="translate(0,-431)" /><g
     id="g26"
     transform="translate(0,-431)" /><g
     id="g28"
     transform="translate(0,-431)" /><g
     id="g30"
     transform="translate(0,-431)" /><g
     id="g32"
     transform="translate(0,-431)" /><g
     id="g34"
     transform="translate(0,-431)" /></svg>